<?xml version="1.0" encoding="UTF-8"?>
<svg xmlns="http://www.w3.org/2000/svg" xmlns:xlink="http://www.w3.org/1999/xlink" width="0" height="0">
<defs>
<symbol viewBox="0 0 24 24" fill="none" id="check">
<path opacity="0.4" d="M6 2H18C20.2091 2 22 3.79086 22 6V18C22 20.2091 20.2091 22 18 22H6C3.79086 22 2 20.2091 2 18V6C2 3.79086 3.79086 2 6 2Z" fill="#575DF1"></path>
<path fill-rule="evenodd" clip-rule="evenodd" d="M16.4605 8.40802C16.7874 8.66232 16.8463 9.13353 16.592 9.46049L12.585 14.6123C11.9613 15.4143 10.7881 15.5183 10.033 14.8387L7.49828 12.5575C7.1904 12.2804 7.16544 11.8062 7.44254 11.4983C7.71963 11.1904 8.19385 11.1655 8.50173 11.4426L11.0364 13.7238C11.1443 13.8209 11.3119 13.806 11.401 13.6914L15.408 8.53958C15.6623 8.21262 16.1335 8.15372 16.4605 8.40802Z" fill="#575DF1"></path>
</symbol>
<symbol viewBox="0 0 24 24" fill="none" id="home">
<path opacity="0.4" d="M3 9.84719C3 8.99027 3.36644 8.17426 4.00691 7.60496L9.34255 2.86217C10.8581 1.51502 13.1419 1.51502 14.6575 2.86217L19.9931 7.60496C20.6336 8.17426 21 8.99027 21 9.84719V18C21 20.2091 19.2091 22 17 22H7C4.79086 22 3 20.2091 3 18V9.84719Z" fill="#575DF1"></path>
<path d="M10 18H14" stroke="#575DF1" stroke-width="1.5" stroke-linecap="round"></path>
</symbol>
<symbol viewBox="0 0 24 24" fill="none" id="notepad">
<path opacity="0.4" d="M21 18V8C21 5.79086 19.2091 4 17 4H7C4.79086 4 3 5.79086 3 8V18C3 20.2091 4.79086 22 7 22H17C19.2091 22 21 20.2091 21 18Z" fill="#575DF1"></path>
<path fill-rule="evenodd" clip-rule="evenodd" d="M7.25 10C7.25 9.58579 7.58579 9.25 8 9.25H16C16.4142 9.25 16.75 9.58579 16.75 10C16.75 10.4142 16.4142 10.75 16 10.75H8C7.58579 10.75 7.25 10.4142 7.25 10Z" fill="#575DF1"></path>
<path fill-rule="evenodd" clip-rule="evenodd" d="M7.25 14C7.25 13.5858 7.58579 13.25 8 13.25H16C16.4142 13.25 16.75 13.5858 16.75 14C16.75 14.4142 16.4142 14.75 16 14.75H8C7.58579 14.75 7.25 14.4142 7.25 14Z" fill="#575DF1"></path>
<path fill-rule="evenodd" clip-rule="evenodd" d="M7.25 18C7.25 17.5858 7.58579 17.25 8 17.25H12C12.4142 17.25 12.75 17.5858 12.75 18C12.75 18.4142 12.4142 18.75 12 18.75H8C7.58579 18.75 7.25 18.4142 7.25 18Z" fill="#575DF1"></path>
<path d="M14 2H10C8.89543 2 8 2.89543 8 4C8 5.10457 8.89543 6 10 6H14C15.1046 6 16 5.10457 16 4C16 2.89543 15.1046 2 14 2Z" fill="#575DF1"></path>
</symbol>
<symbol viewBox="0 0 24 24" fill="none" id="shield">
<path opacity="0.4" d="M10.3755 2.72195L5.3777 4.94321C3.93208 5.5857 2.97809 7.02455 3.07008 8.60384C3.42971 14.7781 5.23776 17.4962 9.93588 20.6769C11.1805 21.5195 12.821 21.5215 14.0647 20.6776C18.7773 17.4796 20.5206 14.723 20.9119 8.62522C21.0139 7.03549 20.0583 5.58138 18.6026 4.9344L13.6246 2.72195C12.5904 2.26228 11.4098 2.26228 10.3755 2.72195Z" fill="#575DF1"></path>
<circle cx="12" cy="12" r="3" fill="#575DF1"></circle>
</symbol>
<symbol viewBox="0 0 24 24" fill="none" id="star">
<path opacity="0.4" d="M10.0328 3.27141C10.8375 1.5762 13.1625 1.57619 13.9672 3.27141L15.3579 6.20118C15.6774 6.87435 16.2951 7.34094 17.0096 7.44888L20.1193 7.91869C21.9187 8.19053 22.6371 10.4895 21.3351 11.8091L19.0849 14.0896C18.5679 14.6136 18.332 15.3685 18.454 16.1084L18.9852 19.3285C19.2926 21.1918 17.4116 22.6126 15.8022 21.7329L13.0208 20.2126C12.3817 19.8633 11.6183 19.8633 10.9792 20.2126L8.19776 21.7329C6.58839 22.6126 4.70742 21.1918 5.01479 19.3286L5.54599 16.1084C5.66804 15.3685 5.43211 14.6136 4.91508 14.0896L2.66488 11.8091C1.36287 10.4895 2.08133 8.19053 3.88066 7.91869L6.99037 7.44888C7.70489 7.34094 8.32257 6.87435 8.64211 6.20118L10.0328 3.27141Z" fill="#575DF1"></path>
</symbol>
</defs>
</svg>